<mxfile host="drawio-plugin" modified="2023-04-17T11:09:12.717Z" agent="5.0 (X11; Linux x86_64) AppleWebKit/537.36 (KHTML, like Gecko) Chrome/104.0.5112.102 Safari/537.36" etag="981j9kqHC77rX1gktut3" version="20.5.3" type="embed"><diagram id="5qC4zMirkx8gMw6tzPM5" name="Page-1"><mxGraphModel dx="1631" dy="1413" grid="1" gridSize="10" guides="1" tooltips="1" connect="1" arrows="1" fold="1" page="0" pageScale="1" pageWidth="850" pageHeight="1100" background="#FFFFFF" math="0" shadow="0"><root><mxCell id="0"/><mxCell id="1" parent="0"/><mxCell id="WGhXLp_J_A_eNvpc9kTa-1" value="" style="shape=flexArrow;endArrow=classic;html=1;strokeColor=#000000;strokeWidth=1;fillColor=#FFFA66;fontColor=#000000;" parent="1" edge="1"><mxGeometry width="50" height="50" relative="1" as="geometry"><mxPoint x="160" y="369" as="sourcePoint"/><mxPoint x="760" y="369" as="targetPoint"/></mxGeometry></mxCell><mxCell id="WGhXLp_J_A_eNvpc9kTa-3" value="" style="group;fontColor=#ffffff;strokeColor=none;fillColor=none;" parent="1" vertex="1" connectable="0"><mxGeometry x="230" y="233.65999999999985" width="490" height="190" as="geometry"/></mxCell><mxCell id="WGhXLp_J_A_eNvpc9kTa-4" value="" style="rounded=0;whiteSpace=wrap;html=1;fillColor=none;strokeWidth=8;strokeColor=#006EAF;fontColor=#ffffff;" parent="WGhXLp_J_A_eNvpc9kTa-3" vertex="1"><mxGeometry x="-30" y="16.680000000000007" width="520" height="173.32" as="geometry"/></mxCell><mxCell id="WGhXLp_J_A_eNvpc9kTa-5" value="" style="rounded=0;whiteSpace=wrap;html=1;fillColor=#ffe6cc;strokeColor=#000000;verticalAlign=bottom;fontColor=#000000;" parent="WGhXLp_J_A_eNvpc9kTa-3" vertex="1"><mxGeometry y="38.71000000000015" width="100" height="126.63" as="geometry"/></mxCell><mxCell id="WGhXLp_J_A_eNvpc9kTa-6" value="&amp;nbsp;Participant" style="rounded=0;whiteSpace=wrap;html=1;fillColor=#fff2cc;strokeColor=#000000;fontColor=#000000;" parent="WGhXLp_J_A_eNvpc9kTa-3" vertex="1"><mxGeometry x="11" y="47.340000000000146" width="80" height="44" as="geometry"/></mxCell><mxCell id="WGhXLp_J_A_eNvpc9kTa-7" value="" style="endArrow=none;html=1;fontColor=#000000;entryX=0.5;entryY=1;entryDx=0;entryDy=0;strokeColor=#000000;" parent="WGhXLp_J_A_eNvpc9kTa-3" target="WGhXLp_J_A_eNvpc9kTa-6" edge="1"><mxGeometry width="50" height="50" relative="1" as="geometry"><mxPoint x="51" y="105.34000000000015" as="sourcePoint"/><mxPoint x="147.1579999999999" y="214.21600000000012" as="targetPoint"/></mxGeometry></mxCell><mxCell id="WGhXLp_J_A_eNvpc9kTa-8" value="Automation Composition Element" style="rounded=1;whiteSpace=wrap;html=1;labelBackgroundColor=none;fillColor=#FFED4D;strokeColor=#000000;fontColor=#000000;" parent="WGhXLp_J_A_eNvpc9kTa-3" vertex="1"><mxGeometry x="10" y="105.34" width="80" height="54.35" as="geometry"/></mxCell><mxCell id="WGhXLp_J_A_eNvpc9kTa-9" value="" style="endArrow=classic;html=1;entryX=0.25;entryY=0;entryDx=0;entryDy=0;fontColor=#000000;strokeColor=#000000;" parent="WGhXLp_J_A_eNvpc9kTa-3" edge="1"><mxGeometry width="50" height="50" relative="1" as="geometry"><mxPoint x="28" y="0.3400000000001455" as="sourcePoint"/><mxPoint x="27.5" y="37.340000000000146" as="targetPoint"/></mxGeometry></mxCell><mxCell id="WGhXLp_J_A_eNvpc9kTa-10" value="" style="endArrow=classic;html=1;exitX=0.038;exitY=1.133;exitDx=0;exitDy=0;exitPerimeter=0;entryX=0.25;entryY=0;entryDx=0;entryDy=0;fontColor=#000000;strokeColor=#000000;" parent="WGhXLp_J_A_eNvpc9kTa-3" edge="1"><mxGeometry width="50" height="50" relative="1" as="geometry"><mxPoint x="60" y="37.33999999999969" as="sourcePoint"/><mxPoint x="61.5" as="targetPoint"/></mxGeometry></mxCell><mxCell id="WGhXLp_J_A_eNvpc9kTa-2" value="" style="rounded=0;whiteSpace=wrap;html=1;fillColor=none;strokeWidth=8;strokeColor=#2D7600;fontColor=#ffffff;" parent="1" vertex="1"><mxGeometry x="215" y="261.3599999999999" width="130" height="148.66" as="geometry"/></mxCell><mxCell id="WGhXLp_J_A_eNvpc9kTa-11" value="Automation Composition Runtime (ACM-R)" style="rounded=0;whiteSpace=wrap;html=1;fillColor=#dae8fc;strokeColor=#000000;verticalAlign=top;fontColor=#000000;" parent="1" vertex="1"><mxGeometry x="410" y="60" width="310" height="120" as="geometry"/></mxCell><mxCell id="WGhXLp_J_A_eNvpc9kTa-12" value="&lt;div&gt;Run Time Inventory&lt;/div&gt;" style="shape=cylinder;whiteSpace=wrap;html=1;boundedLbl=1;backgroundOutline=1;fillColor=#f8cecc;strokeColor=#000000;fontColor=#000000;" parent="1" vertex="1"><mxGeometry x="530" y="90" width="70" height="80" as="geometry"/></mxCell><mxCell id="WGhXLp_J_A_eNvpc9kTa-13" value="&lt;div&gt;&lt;font style=&quot;font-size: 10px&quot;&gt;AC Definition (TOSCA)&lt;br&gt;including API Gateway Metadata&lt;br&gt;&lt;/font&gt;&lt;/div&gt;&lt;div&gt;&lt;font style=&quot;font-size: 10px&quot;&gt;&lt;br&gt;&lt;/font&gt;&lt;/div&gt;" style="shape=note;whiteSpace=wrap;html=1;backgroundOutline=1;darkOpacity=0.05;fillColor=#d5e8d4;strokeColor=#000000;size=9;verticalAlign=top;fontColor=#000000;" parent="1" vertex="1"><mxGeometry x="160" y="60" width="70" height="90" as="geometry"/></mxCell><mxCell id="WGhXLp_J_A_eNvpc9kTa-14" value="&lt;div&gt;ACM Execution Control&lt;br&gt;&lt;/div&gt;" style="rounded=0;whiteSpace=wrap;html=1;fillColor=#fff2cc;strokeColor=#000000;verticalAlign=top;fontColor=#000000;" parent="1" vertex="1"><mxGeometry x="420" y="105" width="80" height="55" as="geometry"/></mxCell><mxCell id="WGhXLp_J_A_eNvpc9kTa-15" value="" style="endArrow=classic;startArrow=classic;html=1;entryX=1;entryY=0.5;entryDx=0;entryDy=0;exitX=0;exitY=0.5;exitDx=0;exitDy=0;fontColor=#000000;strokeColor=#000000;" parent="1" source="WGhXLp_J_A_eNvpc9kTa-12" target="WGhXLp_J_A_eNvpc9kTa-14" edge="1"><mxGeometry width="50" height="50" relative="1" as="geometry"><mxPoint x="170" y="380" as="sourcePoint"/><mxPoint x="220" y="330" as="targetPoint"/></mxGeometry></mxCell><mxCell id="WGhXLp_J_A_eNvpc9kTa-16" value="DMaaP/Kafka" style="rounded=0;whiteSpace=wrap;html=1;fillColor=#dae8fc;strokeColor=#000000;fontColor=#000000;" parent="1" vertex="1"><mxGeometry x="200" y="211" width="520" height="20" as="geometry"/></mxCell><mxCell id="WGhXLp_J_A_eNvpc9kTa-17" value="&lt;div&gt;CL Execution Monitoring&lt;br&gt;&lt;/div&gt;" style="rounded=0;whiteSpace=wrap;html=1;fillColor=#fff2cc;strokeColor=#000000;fontColor=#000000;" parent="1" vertex="1"><mxGeometry x="630" y="110" width="80" height="60" as="geometry"/></mxCell><mxCell id="WGhXLp_J_A_eNvpc9kTa-18" value="" style="endArrow=classic;startArrow=classic;html=1;entryX=1;entryY=0.5;entryDx=0;entryDy=0;exitX=0;exitY=0.5;exitDx=0;exitDy=0;fontColor=#000000;strokeColor=#000000;" parent="1" source="WGhXLp_J_A_eNvpc9kTa-17" target="WGhXLp_J_A_eNvpc9kTa-12" edge="1"><mxGeometry width="50" height="50" relative="1" as="geometry"><mxPoint x="540" y="140" as="sourcePoint"/><mxPoint x="510" y="125" as="targetPoint"/></mxGeometry></mxCell><mxCell id="WGhXLp_J_A_eNvpc9kTa-19" value="" style="endArrow=classic;html=1;exitX=0.898;exitY=0.1;exitDx=0;exitDy=0;exitPerimeter=0;entryX=0.5;entryY=1;entryDx=0;entryDy=0;fontColor=#000000;strokeColor=#000000;" parent="1" source="WGhXLp_J_A_eNvpc9kTa-16" target="WGhXLp_J_A_eNvpc9kTa-17" edge="1"><mxGeometry width="50" height="50" relative="1" as="geometry"><mxPoint x="470" y="155" as="sourcePoint"/><mxPoint x="472" y="277" as="targetPoint"/></mxGeometry></mxCell><mxCell id="WGhXLp_J_A_eNvpc9kTa-20" value="Automation&lt;br&gt;Composition" style="text;html=1;strokeColor=none;fillColor=none;align=center;verticalAlign=middle;whiteSpace=wrap;rounded=0;fontColor=#000000;strokeWidth=0;" parent="1" vertex="1"><mxGeometry x="120" y="281" width="40" height="30" as="geometry"/></mxCell><mxCell id="WGhXLp_J_A_eNvpc9kTa-21" value="" style="endArrow=none;dashed=1;html=1;fontColor=#000000;strokeColor=#000000;" parent="1" edge="1"><mxGeometry width="50" height="50" relative="1" as="geometry"><mxPoint x="180" y="369" as="sourcePoint"/><mxPoint x="140" y="321" as="targetPoint"/></mxGeometry></mxCell><mxCell id="WGhXLp_J_A_eNvpc9kTa-22" value="" style="endArrow=classic;html=1;exitX=0.986;exitY=0.475;exitDx=0;exitDy=0;entryX=0;entryY=0.5;entryDx=0;entryDy=0;exitPerimeter=0;fontColor=#000000;strokeColor=#000000;" parent="1" source="WGhXLp_J_A_eNvpc9kTa-13" target="WGhXLp_J_A_eNvpc9kTa-14" edge="1"><mxGeometry width="50" height="50" relative="1" as="geometry"><mxPoint x="230" y="115" as="sourcePoint"/><mxPoint x="420" y="115" as="targetPoint"/></mxGeometry></mxCell><mxCell id="WGhXLp_J_A_eNvpc9kTa-23" value="" style="endArrow=classic;html=1;exitX=0.25;exitY=1;exitDx=0;exitDy=0;entryX=0.5;entryY=0;entryDx=0;entryDy=0;fontColor=#000000;strokeColor=#000000;" parent="1" source="WGhXLp_J_A_eNvpc9kTa-14" target="WGhXLp_J_A_eNvpc9kTa-16" edge="1"><mxGeometry width="50" height="50" relative="1" as="geometry"><mxPoint x="460" y="145" as="sourcePoint"/><mxPoint x="450" y="290" as="targetPoint"/><Array as="points"><mxPoint x="460" y="190"/></Array></mxGeometry></mxCell><mxCell id="WGhXLp_J_A_eNvpc9kTa-24" value="Specify API Gateway configuration for entire Automation Compostion Instance&lt;br&gt;&lt;div&gt;&lt;font style=&quot;font-size: 10px&quot;&gt;&lt;br&gt;&lt;/font&gt;&lt;/div&gt;" style="shape=note;whiteSpace=wrap;html=1;backgroundOutline=1;darkOpacity=0.05;fillColor=#dae8fc;strokeColor=#000000;size=9;verticalAlign=top;gradientColor=#7ea6e0;fontColor=#000000;" parent="1" vertex="1"><mxGeometry x="290" y="-40" width="110" height="100" as="geometry"/></mxCell><mxCell id="WGhXLp_J_A_eNvpc9kTa-25" value="" style="endArrow=none;dashed=1;html=1;entryX=0.5;entryY=1;entryDx=0;entryDy=0;entryPerimeter=0;exitX=0.25;exitY=0;exitDx=0;exitDy=0;fontColor=#000000;strokeColor=#000000;" parent="1" source="WGhXLp_J_A_eNvpc9kTa-14" target="WGhXLp_J_A_eNvpc9kTa-24" edge="1"><mxGeometry width="50" height="50" relative="1" as="geometry"><mxPoint x="260" y="330" as="sourcePoint"/><mxPoint x="310" y="280" as="targetPoint"/></mxGeometry></mxCell><mxCell id="WGhXLp_J_A_eNvpc9kTa-26" value="Specify API Gateway configuration for each Participant&lt;br&gt;&lt;div&gt;&lt;font style=&quot;font-size: 10px&quot;&gt;&lt;br&gt;&lt;/font&gt;&lt;/div&gt;" style="shape=note;whiteSpace=wrap;html=1;backgroundOutline=1;darkOpacity=0.05;fillColor=#d5e8d4;strokeColor=#000000;size=9;verticalAlign=top;gradientColor=#97d077;fontColor=#000000;" parent="1" vertex="1"><mxGeometry x="450" y="-40" width="100" height="70" as="geometry"/></mxCell><mxCell id="WGhXLp_J_A_eNvpc9kTa-27" value="" style="endArrow=none;dashed=1;html=1;entryX=0.5;entryY=1;entryDx=0;entryDy=0;entryPerimeter=0;exitX=0.75;exitY=0;exitDx=0;exitDy=0;fontColor=#000000;strokeColor=#000000;" parent="1" source="WGhXLp_J_A_eNvpc9kTa-14" target="WGhXLp_J_A_eNvpc9kTa-26" edge="1"><mxGeometry width="50" height="50" relative="1" as="geometry"><mxPoint x="462.0588235294117" y="115" as="sourcePoint"/><mxPoint x="425" y="10" as="targetPoint"/></mxGeometry></mxCell><mxCell id="WGhXLp_J_A_eNvpc9kTa-28" value="Monitor API Gateway access&lt;br&gt;&lt;div&gt;&lt;font style=&quot;font-size: 10px&quot;&gt;&lt;br&gt;&lt;/font&gt;&lt;/div&gt;" style="shape=note;whiteSpace=wrap;html=1;backgroundOutline=1;darkOpacity=0.05;fillColor=#bac8d3;strokeColor=#000000;size=9;verticalAlign=top;fontColor=#000000;" parent="1" vertex="1"><mxGeometry x="760" y="20" width="100" height="50" as="geometry"/></mxCell><mxCell id="WGhXLp_J_A_eNvpc9kTa-29" value="" style="endArrow=none;dashed=1;html=1;entryX=0.41;entryY=1.02;entryDx=0;entryDy=0;entryPerimeter=0;exitX=0.5;exitY=0;exitDx=0;exitDy=0;fontColor=#000000;strokeColor=#000000;" parent="1" source="WGhXLp_J_A_eNvpc9kTa-17" target="WGhXLp_J_A_eNvpc9kTa-28" edge="1"><mxGeometry width="50" height="50" relative="1" as="geometry"><mxPoint x="490" y="115" as="sourcePoint"/><mxPoint x="550" y="-10" as="targetPoint"/></mxGeometry></mxCell><mxCell id="WGhXLp_J_A_eNvpc9kTa-30" value="" style="group;fontColor=#000000;strokeColor=none;" parent="1" vertex="1" connectable="0"><mxGeometry x="411" y="229.99999999999983" width="116" height="181.02" as="geometry"/></mxCell><mxCell id="WGhXLp_J_A_eNvpc9kTa-31" value="" style="rounded=0;whiteSpace=wrap;html=1;fillColor=#ffe6cc;strokeColor=#000000;verticalAlign=bottom;fontColor=#000000;" parent="WGhXLp_J_A_eNvpc9kTa-30" vertex="1"><mxGeometry y="43.37000000000012" width="100" height="126.63" as="geometry"/></mxCell><mxCell id="WGhXLp_J_A_eNvpc9kTa-32" value="&amp;nbsp;Participant" style="rounded=0;whiteSpace=wrap;html=1;fillColor=#fff2cc;strokeColor=#000000;fontColor=#000000;" parent="WGhXLp_J_A_eNvpc9kTa-30" vertex="1"><mxGeometry x="11" y="47.340000000000146" width="80" height="44" as="geometry"/></mxCell><mxCell id="WGhXLp_J_A_eNvpc9kTa-33" value="" style="endArrow=none;html=1;fontColor=#000000;entryX=0.5;entryY=1;entryDx=0;entryDy=0;strokeColor=#000000;" parent="WGhXLp_J_A_eNvpc9kTa-30" target="WGhXLp_J_A_eNvpc9kTa-32" edge="1"><mxGeometry width="50" height="50" relative="1" as="geometry"><mxPoint x="51" y="105.34000000000015" as="sourcePoint"/><mxPoint x="147.1579999999999" y="214.21600000000012" as="targetPoint"/></mxGeometry></mxCell><mxCell id="WGhXLp_J_A_eNvpc9kTa-34" value="Automation Composition Element" style="rounded=1;whiteSpace=wrap;html=1;labelBackgroundColor=none;fillColor=#FFED4D;strokeColor=#000000;fontColor=#000000;" parent="WGhXLp_J_A_eNvpc9kTa-30" vertex="1"><mxGeometry x="10" y="105.34" width="80" height="54.35" as="geometry"/></mxCell><mxCell id="WGhXLp_J_A_eNvpc9kTa-35" value="" style="group;fontColor=#000000;strokeColor=none;" parent="1" vertex="1" connectable="0"><mxGeometry x="594" y="231.99999999999983" width="115" height="187.36999999999998" as="geometry"/></mxCell><mxCell id="WGhXLp_J_A_eNvpc9kTa-36" value="" style="rounded=0;whiteSpace=wrap;html=1;fillColor=#ffe6cc;strokeColor=#000000;verticalAlign=bottom;fontColor=#000000;" parent="WGhXLp_J_A_eNvpc9kTa-35" vertex="1"><mxGeometry y="38.71000000000015" width="100" height="126.63" as="geometry"/></mxCell><mxCell id="WGhXLp_J_A_eNvpc9kTa-37" value="&amp;nbsp;Participant" style="rounded=0;whiteSpace=wrap;html=1;fillColor=#fff2cc;strokeColor=#000000;fontColor=#000000;" parent="WGhXLp_J_A_eNvpc9kTa-35" vertex="1"><mxGeometry x="11" y="47.340000000000146" width="80" height="44" as="geometry"/></mxCell><mxCell id="WGhXLp_J_A_eNvpc9kTa-38" value="" style="endArrow=none;html=1;fontColor=#000000;entryX=0.5;entryY=1;entryDx=0;entryDy=0;strokeColor=#000000;" parent="WGhXLp_J_A_eNvpc9kTa-35" target="WGhXLp_J_A_eNvpc9kTa-37" edge="1"><mxGeometry width="50" height="50" relative="1" as="geometry"><mxPoint x="51" y="105.34000000000015" as="sourcePoint"/><mxPoint x="147.1579999999999" y="214.21600000000012" as="targetPoint"/></mxGeometry></mxCell><mxCell id="WGhXLp_J_A_eNvpc9kTa-39" value="Automation Composition Element" style="rounded=1;whiteSpace=wrap;html=1;labelBackgroundColor=none;fillColor=#FFED4D;strokeColor=#000000;fontColor=#000000;" parent="WGhXLp_J_A_eNvpc9kTa-35" vertex="1"><mxGeometry x="10" y="105.34" width="80" height="54.35" as="geometry"/></mxCell><mxCell id="WGhXLp_J_A_eNvpc9kTa-40" value="" style="rounded=0;whiteSpace=wrap;html=1;fillColor=none;strokeWidth=8;strokeColor=#2D7600;fontColor=#ffffff;" parent="WGhXLp_J_A_eNvpc9kTa-35" vertex="1"><mxGeometry x="-15" y="27.69999999999998" width="130" height="148.66" as="geometry"/></mxCell><mxCell id="WGhXLp_J_A_eNvpc9kTa-41" value="" style="endArrow=classic;html=1;exitX=0.038;exitY=1.133;exitDx=0;exitDy=0;exitPerimeter=0;entryX=0.25;entryY=0;entryDx=0;entryDy=0;fontColor=#000000;strokeColor=#000000;" parent="WGhXLp_J_A_eNvpc9kTa-35" edge="1"><mxGeometry width="50" height="50" relative="1" as="geometry"><mxPoint x="60" y="37.33999999999969" as="sourcePoint"/><mxPoint x="61.5" as="targetPoint"/></mxGeometry></mxCell><mxCell id="WGhXLp_J_A_eNvpc9kTa-42" value="" style="endArrow=classic;html=1;entryX=0.25;entryY=0;entryDx=0;entryDy=0;fontColor=#000000;strokeColor=#000000;" parent="WGhXLp_J_A_eNvpc9kTa-35" edge="1"><mxGeometry width="50" height="50" relative="1" as="geometry"><mxPoint x="28" y="1.7053025658242404e-13" as="sourcePoint"/><mxPoint x="27.5" y="37.340000000000146" as="targetPoint"/></mxGeometry></mxCell><mxCell id="WGhXLp_J_A_eNvpc9kTa-43" value="Automation Composition Instance sandboxed by API Gateway using configuration for entire Automation Composition Instance&lt;br&gt;&lt;div&gt;&lt;font style=&quot;font-size: 10px&quot;&gt;&lt;br&gt;&lt;/font&gt;&lt;/div&gt;" style="shape=note;whiteSpace=wrap;html=1;backgroundOutline=1;darkOpacity=0.05;fillColor=#dae8fc;strokeColor=#000000;size=9;verticalAlign=top;gradientColor=#7ea6e0;fontColor=#000000;" parent="1" vertex="1"><mxGeometry x="780" y="110" width="130" height="119" as="geometry"/></mxCell><mxCell id="WGhXLp_J_A_eNvpc9kTa-44" value="" style="endArrow=none;dashed=1;html=1;entryX=0.331;entryY=1;entryDx=0;entryDy=0;entryPerimeter=0;exitX=1;exitY=0.25;exitDx=0;exitDy=0;fontColor=#000000;strokeColor=#000000;" parent="1" source="WGhXLp_J_A_eNvpc9kTa-4" target="WGhXLp_J_A_eNvpc9kTa-43" edge="1"><mxGeometry width="50" height="50" relative="1" as="geometry"><mxPoint x="190" y="379" as="sourcePoint"/><mxPoint x="150" y="331" as="targetPoint"/></mxGeometry></mxCell><mxCell id="WGhXLp_J_A_eNvpc9kTa-45" value="Individual Automation Composition Elements sandboxed by API Gateway using configuration for the Automation Composition Element&lt;br&gt;&lt;div&gt;&lt;font style=&quot;font-size: 10px&quot;&gt;&lt;br&gt;&lt;/font&gt;&lt;/div&gt;" style="shape=note;whiteSpace=wrap;html=1;backgroundOutline=1;darkOpacity=0.05;fillColor=#d5e8d4;strokeColor=#000000;size=9;verticalAlign=top;gradientColor=#97d077;fontColor=#000000;" parent="1" vertex="1"><mxGeometry x="350" y="450" width="150" height="110" as="geometry"/></mxCell><mxCell id="WGhXLp_J_A_eNvpc9kTa-46" value="" style="endArrow=none;dashed=1;html=1;entryX=0.288;entryY=0.754;entryDx=0;entryDy=0;entryPerimeter=0;fontColor=#000000;strokeColor=#000000;" parent="1" source="WGhXLp_J_A_eNvpc9kTa-45" target="WGhXLp_J_A_eNvpc9kTa-4" edge="1"><mxGeometry width="50" height="50" relative="1" as="geometry"><mxPoint x="730" y="303.66999999999985" as="sourcePoint"/><mxPoint x="853.0300000000002" y="240" as="targetPoint"/></mxGeometry></mxCell><mxCell id="WGhXLp_J_A_eNvpc9kTa-47" value="" style="endArrow=none;dashed=1;html=1;entryX=0.5;entryY=1;entryDx=0;entryDy=0;exitX=0;exitY=0;exitDx=60.5;exitDy=0;exitPerimeter=0;fontColor=#000000;strokeColor=#000000;" parent="1" source="WGhXLp_J_A_eNvpc9kTa-45" edge="1"><mxGeometry width="50" height="50" relative="1" as="geometry"><mxPoint x="418.54195901245384" y="491" as="sourcePoint"/><mxPoint x="462" y="411.02" as="targetPoint"/></mxGeometry></mxCell><mxCell id="WGhXLp_J_A_eNvpc9kTa-48" value="" style="endArrow=none;dashed=1;html=1;entryX=0.008;entryY=0.944;entryDx=0;entryDy=0;exitX=0;exitY=0;exitDx=121;exitDy=0;exitPerimeter=0;entryPerimeter=0;fontColor=#000000;strokeColor=#000000;" parent="1" source="WGhXLp_J_A_eNvpc9kTa-45" target="WGhXLp_J_A_eNvpc9kTa-40" edge="1"><mxGeometry width="50" height="50" relative="1" as="geometry"><mxPoint x="440.5" y="491" as="sourcePoint"/><mxPoint x="472" y="421.02" as="targetPoint"/></mxGeometry></mxCell><mxCell id="WGhXLp_J_A_eNvpc9kTa-49" value="" style="rounded=0;whiteSpace=wrap;html=1;fillColor=none;strokeWidth=8;strokeColor=#2D7600;fontColor=#ffffff;" parent="1" vertex="1"><mxGeometry x="395" y="261.3599999999998" width="130" height="148.66" as="geometry"/></mxCell><mxCell id="WGhXLp_J_A_eNvpc9kTa-50" value="" style="endArrow=classic;html=1;entryX=0.377;entryY=0.975;entryDx=0;entryDy=0;entryPerimeter=0;exitX=0.585;exitY=0.001;exitDx=0;exitDy=0;exitPerimeter=0;fontColor=#000000;strokeColor=#000000;" parent="1" source="WGhXLp_J_A_eNvpc9kTa-31" edge="1"><mxGeometry width="50" height="50" relative="1" as="geometry"><mxPoint x="470" y="267" as="sourcePoint"/><mxPoint x="469.5" y="231.5" as="targetPoint"/></mxGeometry></mxCell><mxCell id="WGhXLp_J_A_eNvpc9kTa-51" value="" style="endArrow=classic;html=1;fontColor=#000000;strokeColor=#000000;" parent="1" edge="1"><mxGeometry width="50" height="50" relative="1" as="geometry"><mxPoint x="440" y="230" as="sourcePoint"/><mxPoint x="440" y="273" as="targetPoint"/></mxGeometry></mxCell></root></mxGraphModel></diagram></mxfile>